<svg xmlns="http://www.w3.org/2000/svg" width="128" height="128"><defs><linearGradient id="a" x1="88.596" x2="536.596" y1="-449.394" y2="-449.394" gradientTransform="matrix(.23214 0 0 .32895 -8.567 267.827)" gradientUnits="userSpaceOnUse"><stop offset="0" style="stop-color:#77767b;stop-opacity:1"/><stop offset=".303" style="stop-color:#c0bfbc;stop-opacity:1"/><stop offset=".552" style="stop-color:#9a9996;stop-opacity:1"/><stop offset=".78" style="stop-color:#9a9996;stop-opacity:1"/><stop offset="1" style="stop-color:#c0bfbc;stop-opacity:1"/><stop offset="1" style="stop-color:#77767b;stop-opacity:1"/></linearGradient></defs><path d="M64 14c28.719 0 52 23.281 52 52v2c0 28.719-23.281 52-52 52S12 96.719 12 68v-2c0-28.719 23.281-52 52-52m0 0" style="stroke:none;fill-rule:nonzero;fill:url(#a)"/><path d="M64 12c28.719 0 52 23.281 52 52s-23.281 52-52 52-52-23.281-52-52 23.281-52 52-52m0 0" style="stroke:none;fill-rule:nonzero;fill:#deddda;fill-opacity:1"/><path d="M64.918 34.023a18 18 0 0 1 11.812 5.243 18.04 18.04 0 0 1 3.907 19.617c-1.985 4.785-5.914 8.355-10.633 10.035v7.078h-12v-12a6 6 0 0 1 6-6.004 5.96 5.96 0 0 0 5.543-3.703 5.96 5.96 0 0 0-1.3-6.539 5.96 5.96 0 0 0-6.54-1.3 5.96 5.96 0 0 0-3.703 5.542H46A18.04 18.04 0 0 1 57.11 35.36a18 18 0 0 1 7.808-1.336m-.914 47.973a6.002 6.002 0 0 1 0 12.004c-3.317 0-6-2.687-6-6a6 6 0 0 1 6-6.004m0 0" style="stroke:none;fill-rule:nonzero;fill:#9a9996;fill-opacity:1"/><path d="M109.988 236c0 25.398-20.59 45.988-45.988 45.988S18.012 261.398 18.012 236 38.602 190.012 64 190.012s45.988 20.59 45.988 45.988Zm0 0" style="fill:none;stroke-width:4;stroke-linecap:round;stroke-linejoin:miter;stroke:#9a9996;stroke-opacity:1;stroke-miterlimit:4" transform="translate(0 -172)"/></svg>