<svg xmlns="http://www.w3.org/2000/svg" width="16" height="16"><g style="display:inline"><path d="M345.727 567c-1.511 0-2.727 1.115-2.727 2.5v11c0 1.385 1.216 2.5 2.727 2.5H350l.028-5 .95.002c.022-2.002 1.289-3.457 4.022-2.983V572l-5-5zm.765 2.977a.5.5 0 0 1 .508.507v3.532h1v-4.032h3v4.032h.512c.676-.01.676 1.01 0 1H350v-4.032h-1v4.032h-3v-4.532a.5.5 0 0 1 .492-.507" style="display:inline;opacity:.35;vector-effect:none;fill:#bebebe;fill-opacity:1;stroke:none;stroke-width:1;stroke-linecap:round;stroke-linejoin:round;stroke-miterlimit:4;stroke-dasharray:none;stroke-dashoffset:0;stroke-opacity:0;marker:none" transform="translate(-341 -567)"/><path d="M354 575.875c-1.089 0-2 .879-2 1.969v1.093h-.969V583h5.97v-4.062h-1.032v-1.094c0-1.09-.88-1.969-1.969-1.969m0 1c.546 0 .969.417.969.969v1.093H353v-1.093c0-.552.454-.969 1-.969" style="color:#000;font-style:normal;font-variant:normal;font-weight:400;font-stretch:normal;font-size:medium;line-height:normal;font-family:Sans;-inkscape-font-specification:Sans;text-indent:0;text-align:start;text-decoration:none;text-decoration-line:none;letter-spacing:normal;word-spacing:normal;text-transform:none;writing-mode:lr-tb;direction:ltr;baseline-shift:baseline;text-anchor:start;display:inline;overflow:visible;visibility:visible;fill:#bebebe;fill-opacity:1;stroke:none;stroke-width:1;marker:none" transform="translate(-341 -567)"/></g></svg>