<svg xmlns="http://www.w3.org/2000/svg" width="16" height="16"><g style="display:inline"><path d="M365.727 567c-1.511 0-2.727 1.115-2.727 2.5v11c0 1.385 1.216 2.5 2.727 2.5H371l.016-5.969 3.984-.015V572l-5-5zm.765 2.977a.5.5 0 0 1 .508.507v3.532h1v-4.032h3v4.032h.512c.676-.01.676 1.01 0 1H370v-4.032h-1v4.032h-3v-4.532a.5.5 0 0 1 .492-.507" style="display:inline;opacity:.35;vector-effect:none;fill:#bebebe;fill-opacity:1;stroke:none;stroke-width:1;stroke-linecap:round;stroke-linejoin:round;stroke-miterlimit:4;stroke-dasharray:none;stroke-dashoffset:0;stroke-opacity:0;marker:none" transform="translate(-361 -567)"/><path d="M372 578h1.375l1.125 1.094 1.094-1.094H377v1.469l-1.094 1.062 1.094 1.063V583h-1.437l-1.063-1.062-1.062 1.062H372v-1.406l1.063-1.063L372 579.47z" style="color:#bebebe;display:inline;overflow:visible;visibility:visible;fill:#bebebe;fill-opacity:1;stroke:none;stroke-width:2;marker:none" transform="translate(-361 -567)"/></g></svg>