<svg xmlns="http://www.w3.org/2000/svg" width="16" height="16"><g style="display:inline"><path d="M108 382a8 8 0 0 0-7.738 6.01A8 8 0 0 0 108 394a8 8 0 0 0 7.738-6.01A8 8 0 0 0 108 382m0 2a4 4 0 0 1 4 4 4 4 0 0 1-4 4 4 4 0 0 1-4-4 4 4 0 0 1 4-4" style="opacity:1;vector-effect:none;fill:#2e3436;fill-opacity:1;stroke:none;stroke-width:1.5;stroke-linecap:butt;stroke-linejoin:round;stroke-miterlimit:4;stroke-dasharray:none;stroke-dashoffset:0;stroke-opacity:1;marker:none;marker-start:none;marker-mid:none;marker-end:none;paint-order:normal" transform="translate(-100 -380)"/><path d="M110 388a2 2 0 0 1-2 2 2 2 0 0 1-2-2 2 2 0 0 1 2-2 2 2 0 0 1 2 2" style="vector-effect:none;fill:#2e3436;fill-opacity:1;stroke:none;stroke-width:1;stroke-linecap:round;stroke-linejoin:round;stroke-miterlimit:4;stroke-dasharray:none;stroke-opacity:1" transform="translate(-100 -380)"/></g></svg>