<svg xmlns="http://www.w3.org/2000/svg" width="16" height="16"><path d="M8 1s-.71-.014-1.447.355C5.813 1.725 5 2.667 5 4v1h-.986l6 6H12V5h-1V4c0-1.333-.814-2.275-1.553-2.645C8.71.986 8 1 8 1m0 2s.29.014.553.145c.26.13.447.188.447.855v1H7V4c0-.667.186-.725.447-.855C7.71 3.014 8 3 8 3M4 7.104V11h3v2H2v2h9.896l-2-2H9v-.896zM12.014 13 14 14.986V13z" style="color:#bebebe;line-height:normal;font-variant-ligatures:normal;font-variant-position:normal;font-variant-caps:normal;font-variant-numeric:normal;font-variant-alternates:normal;font-feature-settings:normal;text-indent:0;text-align:start;text-decoration-line:none;text-decoration-style:solid;text-decoration-color:#000;text-transform:none;text-orientation:mixed;shape-padding:0;isolation:auto;mix-blend-mode:normal;fill:#474747;marker:none"/><path d="m.48 1.465 14 14 1.058-1.058-14-14Zm0 0" style="fill:#474747;fill-opacity:1;stroke-width:1.00001"/></svg>