<svg xmlns="http://www.w3.org/2000/svg" width="16" height="16"><path d="M4.197 0A2.217 2.217 0 0 0 2 2.201V13.8C2 14.999 2.995 16 4.197 16h7.607A2.215 2.215 0 0 0 14 13.799V2.2C14 1.001 13.006 0 11.804 0Zm0 2H5v.25c0 .416.334.75.75.75h4.5c.415 0 .75-.334.75-.75V2h.804c.124 0 .196.07.196.201v9.543c0 .131-.072.201-.196.201H4.197c-.124 0-.197-.07-.197-.2V2.2c0-.13.073-.201.197-.201M8 12.836a1 1 0 0 1 1 1 1 1 0 0 1-1 1 1 1 0 0 1-1-1 1 1 0 0 1 1-1" style="color:#bebebe;font-style:normal;font-variant:normal;font-weight:400;font-stretch:normal;font-size:medium;line-height:normal;font-family:sans-serif;font-variant-ligatures:normal;font-variant-position:normal;font-variant-caps:normal;font-variant-numeric:normal;font-variant-alternates:normal;font-feature-settings:normal;text-indent:0;text-align:start;text-decoration:none;text-decoration-line:none;text-decoration-style:solid;text-decoration-color:#000;letter-spacing:normal;word-spacing:normal;text-transform:none;writing-mode:lr-tb;direction:ltr;text-orientation:mixed;dominant-baseline:auto;baseline-shift:baseline;text-anchor:start;white-space:normal;shape-padding:0;clip-rule:nonzero;display:inline;overflow:visible;visibility:visible;isolation:auto;mix-blend-mode:normal;color-interpolation:sRGB;color-interpolation-filters:linearRGB;solid-color:#000;solid-opacity:1;vector-effect:none;fill:#2e3436;fill-opacity:1;fill-rule:nonzero;stroke:none;stroke-width:2;stroke-linecap:butt;stroke-linejoin:miter;stroke-miterlimit:4;stroke-dasharray:none;stroke-dashoffset:0;stroke-opacity:1;marker:none;color-rendering:auto;image-rendering:auto;shape-rendering:auto;text-rendering:auto"/></svg>