<svg xmlns="http://www.w3.org/2000/svg" width="16" height="16"><g style="display:inline" transform="matrix(-1 0 0 1 24 -280)"><path d="M8 280h16v16H8z" style="opacity:.02;fill:none;stroke:none"/><path d="M104 519c-1.662 0-3 1.338-3 3v1h2v-1c0-.554.446-1 1-1h8c.554 0 1 .446 1 1v6c0 .554-.446 1-1 1h-3v2h3c1.662 0 3-1.338 3-3v-6c0-1.662-1.338-3-3-3zm5 13.025V534h3c1 0 1-1 1-1s-.052-.845-4-.975" style="fill:#2e3436;fill-opacity:1;stroke:none" transform="matrix(-1 0 0 1 124 -238)"/><path d="M21.72 286c.71 0 1.28.571 1.28 1.281v7.438c0 .71-.57 1.281-1.28 1.281h-4.438c-.71 0-1.282-.571-1.282-1.281v-7.438c0-.71.572-1.281 1.282-1.281H19h1zm-.13 1H21c0 .554-.446 1-1 1h-1c-.554 0-1-.446-1-1h-.59a.41.41 0 0 0-.41.41v6.163c0 .228.183.41.41.41h4.18c.228 0 .41-.182.41-.41v-6.163a.41.41 0 0 0-.41-.41" style="opacity:1;vector-effect:none;fill:#2e3436;fill-opacity:1;fill-rule:nonzero;stroke:none;stroke-width:20;stroke-linecap:butt;stroke-linejoin:miter;stroke-miterlimit:4;stroke-dasharray:none;stroke-dashoffset:0;stroke-opacity:1;marker:none;marker-start:none;marker-mid:none;marker-end:none;paint-order:normal"/></g></svg>